<svg width="100" height="100" viewBox="0 0 100 100" fill="none" xmlns="http://www.w3.org/2000/svg">
<path d="M23.5955 66.3787L23.6375 66.8558L18.2468 67.3363L18.193 66.7282L22.2365 66.3687L18.5189 64.4721L18.4971 64.2335L21.8199 61.7087L17.7764 62.0682L17.7227 61.4668L23.1134 60.9863L23.1554 61.4634L19.4076 64.2739L23.5938 66.3771L23.5955 66.3787Z" fill="#FFC9A5"/>
<path d="M20.8675 75.4617L22.1408 74.2169L21.1766 71.7458L19.3942 71.687L19.1641 71.0957L25.0554 71.3023L25.3023 71.9356L21.1127 76.0866L20.8675 75.46V75.4617ZM21.7242 71.766L22.5305 73.8322L24.5481 71.8567L21.7225 71.7643L21.7242 71.766Z" fill="#FFC9A5"/>
<path d="M25.676 83.0933L25.2694 82.5289L25.9783 80.5886C26.0859 80.3013 26.1144 80.0628 26.0741 79.8612C26.0355 79.6613 25.8994 79.406 25.6726 79.0918L25.2711 78.5324L23.3762 79.8965L23.0234 79.4076L27.4163 76.2461L27.7691 76.7349L28.6141 77.9092C29.3499 78.9322 29.4154 79.8578 28.5687 80.466C27.9354 80.9229 27.2803 80.8204 26.6016 80.1669C26.6201 80.392 26.5781 80.6507 26.4622 80.9531L25.676 83.0916V83.0933ZM25.686 78.2351L26.4487 79.2951C27.0636 80.1485 27.5927 80.3954 28.1958 79.962C28.7989 79.5286 28.7317 78.9473 28.1185 78.094L27.3559 77.034L25.686 78.2351Z" fill="#FFC9A5"/>
<path d="M31.9039 81.6943L32.3424 82.1076L28.6299 86.0469L28.1914 85.6337L31.9039 81.6943Z" fill="#FFC9A5"/>
<path d="M35.3267 90.9372L35.6072 89.1784L33.3596 87.7689L31.893 88.7836L31.3555 88.4459L36.2103 85.0996L36.7865 85.4608L35.8962 91.2933L35.3267 90.9355V90.9372ZM33.8098 87.4582L35.6912 88.6374L36.1347 85.8488L33.8115 87.4582H33.8098Z" fill="#FFC9A5"/>
<path d="M45.1878 88.9413L45.7657 89.1143L44.2152 94.3001L43.77 94.1674L41.2317 88.8892L39.9919 93.0385L39.4141 92.8655L40.9646 87.6797L41.4098 87.8124L43.9497 93.0839L45.1878 88.943V88.9413Z" fill="#FFC9A5"/>
<path d="M52.703 95.0206L52.0429 93.3659L49.392 93.3071L48.6528 94.9299L48.0195 94.9164L50.4738 89.5576L51.1542 89.5727L53.3767 95.0357L52.7047 95.0206H52.703ZM49.6188 92.8115L51.8379 92.8603L50.7897 90.238L49.6188 92.8115Z" fill="#FFC9A5"/>
<path d="M63.8271 91.115C63.9901 91.5736 63.9716 91.9751 63.7801 92.3312C63.5835 92.689 63.2526 92.9461 62.7856 93.1124C61.8868 93.4315 61.0855 93.1678 60.6605 92.2103L61.104 92.0523C61.4282 92.726 61.9809 92.857 62.5974 92.637C63.2425 92.4068 63.56 91.9331 63.3551 91.3569C63.0829 90.5589 62.0968 90.779 61.2989 90.7756C60.7412 90.7756 60.1902 90.5052 59.9483 89.8282C59.787 89.3763 59.8071 88.9748 59.9987 88.6204C60.1902 88.2642 60.5026 88.0139 60.9243 87.8644C61.7541 87.5687 62.5134 87.898 62.92 88.7295L62.4714 88.8891C62.1657 88.3415 61.6752 88.1298 61.1057 88.3331C60.5127 88.5448 60.207 89.0554 60.4052 89.6081C60.8974 90.9923 63.1686 89.257 63.8305 91.115H63.8271Z" fill="#FFC9A5"/>
<path d="M67.7093 90.2448L70.5936 88.4692L70.8607 88.9042L67.5278 90.9554L67.4623 90.9957L64.625 86.3861L65.139 86.0703L67.9579 84.335L68.225 84.77L65.4061 86.5054L66.3586 88.0525L68.9793 86.4399L69.243 86.8682L66.6224 88.4809L67.7093 90.2465V90.2448Z" fill="#FFC9A5"/>
<path d="M75.9292 82.1174L76.3475 81.6823C76.9354 82.665 76.707 83.72 75.9292 84.5297C75.3563 85.126 74.6995 85.4183 73.9503 85.4183C73.2061 85.4217 72.5509 85.1563 71.9865 84.6154C71.422 84.0744 71.1314 83.4294 71.0995 82.6801C71.0726 81.9359 71.3381 81.269 71.9126 80.6727C72.6887 79.863 73.7336 79.5908 74.7398 80.1385L74.3215 80.5736C73.5538 80.2225 72.8096 80.4728 72.2788 81.0254C71.8403 81.4824 71.6421 82.0015 71.6824 82.5861C71.7278 83.1757 71.9781 83.6965 72.4417 84.1399C72.9054 84.5851 73.4345 84.8136 74.0208 84.8304C74.6121 84.8505 75.1211 84.6321 75.5613 84.1752C76.0921 83.6225 76.3105 82.8683 75.9292 82.1174Z" fill="#FFC9A5"/>
<path d="M82.1042 75.4318L81.7665 76.0399L79.7087 76.2231C79.403 76.2482 79.1745 76.3238 79.0099 76.4448C78.8452 76.5657 78.6722 76.7976 78.4841 77.1352L78.1498 77.7366L80.1908 78.8722L79.8968 79.3997L75.168 76.7673L75.4619 76.2399L76.1658 74.9766C76.779 73.8746 77.5887 73.4227 78.5009 73.93C79.1829 74.3097 79.3694 74.9447 79.067 75.8384C79.2618 75.7258 79.5138 75.6536 79.838 75.6301L82.1076 75.4335L82.1042 75.4318ZM77.7046 77.4863L78.3396 76.344C78.8503 75.4251 78.8486 74.8405 78.2002 74.4793C77.5517 74.1182 77.0528 74.4256 76.5421 75.3445L75.9071 76.4868L77.7046 77.4863Z" fill="#FFC9A5"/>
<path d="M83.1028 71.1921L83.9797 67.9214L84.4719 68.0541L83.4589 71.8322L83.4387 71.9061L78.2109 70.5034L78.3672 69.9204L79.2239 66.7236L79.7161 66.8563L78.8594 70.0532L80.6148 70.5235L81.4128 67.5518L81.8983 67.6812L81.1003 70.6529L83.1011 71.1888L83.1028 71.1921Z" fill="#FFC9A5"/>
<path d="M79.6979 59.5264L80.2086 59.5364L80.1632 61.7018L85.0651 61.806L85.0517 62.409L80.1498 62.3049L80.1044 64.4703L79.5938 64.4602L79.6525 61.6917L79.6979 59.5264Z" fill="#FFC9A5"/>
<path d="M62.0709 33.0767C60.8513 33.0767 59.6938 32.4904 58.9765 31.506C57.8947 30.026 58.1483 28.079 59.6535 26.2984C65.2055 19.7267 65.3937 17.3816 63.3089 14.2923C60.6194 10.3059 56.5928 9.25596 53.7857 9.14173C53.6362 9.13501 53.4883 9.13333 53.3405 9.13333C47.3047 9.13333 42.2802 14.0319 41.8988 20.2844L41.8316 21.3864L40.7666 21.0941C40.2206 20.9429 39.4109 20.8102 38.6029 20.7346L37.7227 20.654L37.7932 19.772C37.9814 17.4067 38.4097 16.0175 38.65 15.3993C41.0992 9.05942 46.8679 4.96387 53.3456 4.96387C54.0057 4.96387 54.676 5.00754 55.3362 5.09322C67.2348 6.64711 69.0793 17.4252 69.17 18.1039C69.8202 22.9705 69.2372 27.7649 64.3303 32.3392C63.7323 32.8969 62.889 33.0767 62.0725 33.0767H62.0709Z" fill="#FFC9A5"/>
<path d="M51.3996 87.1807C47.556 87.1807 43.7175 86.2618 39.9915 84.4509C34.4026 81.7345 30.176 77.2442 27.7704 71.4688C25.899 66.9784 25.5865 62.7888 25.6806 61.2013L25.7881 59.4156L18.7948 53.0153C16.3825 50.8079 15.0873 48.0479 14.9428 44.8141C14.8235 41.5182 15.8617 38.6506 18.0288 36.282C20.1034 34.0158 22.7055 32.7475 25.7747 32.5022C25.7478 29.423 26.7826 26.7184 28.8556 24.4522C31.0226 22.0836 33.7877 20.7968 37.0736 20.6238C37.2752 20.6154 37.4667 20.6104 37.6582 20.6104C40.6551 20.6104 43.3244 21.662 45.5889 23.7349L63.6963 40.307C65.1326 41.5803 66.4396 42.7008 67.5937 43.6886C72.3729 47.7824 75.2086 50.0368 76.3173 54.1509C80.4935 69.6545 70.7955 79.9135 64.5262 83.5303C60.3887 85.9191 55.8479 87.1807 51.3996 87.1807ZM30.4817 63.9513C30.6816 66.8541 32.3178 71.4621 35.5197 75.2183C38.3217 78.5041 43.4319 82.4216 51.8649 82.4199C52.0027 82.4199 52.1438 82.4199 52.2832 82.4166C57.842 82.3326 62.0786 79.9018 64.9361 77.471C67.8137 75.0234 70.8106 71.4788 71.1332 66.5131C71.4188 62.1152 71.0374 59.2644 68.2303 55.2814C67.2191 53.8451 61.6855 48.824 50.4774 38.5045L47.0773 35.3732L46.9765 35.348L46.8421 35.1564L40.472 29.3273C39.627 28.5528 38.7199 28.1933 37.6195 28.1933C37.5456 28.1933 37.47 28.1933 37.3928 28.1984C36.2084 28.2505 35.2459 28.699 34.4496 29.5692C33.6752 30.4141 33.314 31.4137 33.3442 32.6215C33.4198 33.8109 33.8717 34.7466 34.7637 35.563L38.9231 39.3696L37.9253 39.9945C36.2706 41.0293 34.7402 42.1952 33.3778 43.4584L32.7731 44.0195L29.6451 41.157C28.8136 40.396 27.851 40.0264 26.7037 40.0264C26.6583 40.0264 26.613 40.0264 26.5676 40.0264C25.3614 40.1037 24.3989 40.5522 23.6244 41.3989C22.8282 42.2691 22.4653 43.2669 22.5191 44.4512C22.593 45.649 23.0499 46.625 23.9167 47.4179L49.9784 71.2689C50.7444 71.9711 51.1611 72.8748 51.1812 73.8878C51.2501 74.9108 50.9175 75.8331 50.1901 76.626C49.4896 77.392 48.5841 77.8086 47.5728 77.8288C47.4855 77.8355 47.3981 77.8372 47.3108 77.8372C46.3902 77.8372 45.5654 77.5079 44.8581 76.8612L30.4683 63.6909L30.4868 63.9479L30.4817 63.9513Z" fill="#FFC9A5"/>
<path d="M58.2618 66.0039C58.0854 66.0039 57.9023 65.9921 57.7175 65.9703C56.9817 65.8813 56.3047 65.557 55.705 65.0077L37.9453 48.7549L38.8524 48.1132C40.9355 46.6399 42.9614 45.6185 44.2953 45.0205L44.8328 44.7803L60.8253 59.4154C61.5661 60.0941 61.9827 60.9995 62.0281 62.0343C62.0751 63.0843 61.7408 64.0048 61.037 64.7742C60.2894 65.5906 59.3554 66.0056 58.2618 66.0056V66.0039Z" fill="#FFC9A5"/>
<path d="M27.8203 51.0884L28.0925 50.4954C32.6886 40.4816 41.5869 37.6829 43.3256 37.2226C43.717 37.1185 44.1168 37.0664 44.5133 37.0664C46.21 37.0664 47.611 37.9954 48.1721 39.4922C48.5316 40.4497 48.4963 41.4912 48.0713 42.4219C47.648 43.3542 46.887 44.0648 45.9278 44.4226L45.8925 44.436C44.4159 44.987 36.848 48.0478 32.865 54.2802L32.2922 55.1772L27.8203 51.085V51.0884Z" fill="#FFC9A5"/>
</svg>
